<?xml version="1.0" encoding="UTF-8"?>
<!DOCTYPE svg PUBLIC "-//W3C//DTD SVG 1.1//EN" "http://www.w3.org/Graphics/SVG/1.1/DTD/svg11.dtd">
<!-- Creator: CorelDRAW Standard 2024 -->
<svg xmlns="http://www.w3.org/2000/svg" xml:space="preserve" width="362px" height="204px" version="1.1" style="shape-rendering:geometricPrecision; text-rendering:geometricPrecision; image-rendering:optimizeQuality; fill-rule:evenodd; clip-rule:evenodd"
viewBox="0 0 44.643 25.093"
 xmlns:xlink="http://www.w3.org/1999/xlink"
 xmlns:xodm="http://www.corel.com/coreldraw/odm/2003">
 <defs>
  <style type="text/css">
   <![CDATA[
    .fil1 {fill:#009640}
    .fil3 {fill:white}
    .fil0 {fill:black;fill-rule:nonzero}
    .fil4 {fill:black;fill-rule:nonzero}
    .fil2 {fill:white;fill-rule:nonzero}
   ]]>
  </style>
 </defs>
 <g id="Layer_x0020_1">
  <metadata id="CorelCorpID_0Corel-Layer"/>
  <g id="_1378943682928">
   <path class="fil0" d="M1.82 0l31.347 0c0.115,0 0.217,0.053 0.283,0.135l11.099 12.167c0.127,0.14 0.125,0.352 0,0.489l-11.113 12.182c-0.072,0.079 -0.17,0.119 -0.269,0.119l-31.347 0.001c-0.501,0 -0.956,-0.205 -1.286,-0.535 -0.329,-0.329 -0.534,-0.785 -0.534,-1.285l0 -21.453c0,-0.501 0.205,-0.956 0.534,-1.286 0.33,-0.329 0.785,-0.534 1.286,-0.534zm31.187 0.728l-31.187 0c-0.3,0 -0.573,0.123 -0.771,0.321 -0.198,0.198 -0.321,0.471 -0.321,0.771l0 21.453c0,0.3 0.123,0.573 0.321,0.771 0.198,0.198 0.471,0.321 0.771,0.321l31.187 0 10.781 -11.819 -10.781 -11.818z"/>
   <polygon class="fil1" points="10.384,0.364 10.384,24.729 33.167,24.729 44.28,12.546 33.167,0.364 "/>
   <path class="fil2" d="M15.362 21.005l5.427 -16.917 4.287 0 5.431 16.917 -3.772 0 -0.923 -3.205 -5.755 0 -0.922 3.205 -3.773 0zm9.612 -6.112l-1.922 -6.673 -0.239 0 -1.92 6.673 4.081 0z"/>
   <g>
    <path class="fil3" d="M1.82 0.364c-0.801,0 -1.456,0.655 -1.456,1.456l0 21.453c0,0.8 0.655,1.456 1.456,1.456l8.564 0 0 -24.365 -8.564 0z"/>
    <g>
     <path class="fil4" d="M3.222 8.25l1.542 -4.808 1.219 0 1.543 4.808 -1.072 0 -1.046 -3.634 -0.068 0 -1.046 3.634 -1.072 0zm0.778 -0.911l0 -0.826 2.71 0 0 0.826 -2.71 0z"/>
     <path class="fil4" d="M5.784 22.011c-0.818,0 -1.431,-0.207 -1.841,-0.621 -0.411,-0.412 -0.615,-1.032 -0.615,-1.858 0,-0.784 0.212,-1.39 0.636,-1.82 0.423,-0.43 1.02,-0.645 1.79,-0.645 0.389,0 0.724,0.055 1.006,0.164 0.283,0.11 0.502,0.265 0.66,0.466l-0.624 0.647c-0.115,-0.133 -0.26,-0.238 -0.435,-0.313 -0.173,-0.076 -0.361,-0.113 -0.562,-0.113 -0.451,0 -0.802,0.136 -1.051,0.411 -0.25,0.274 -0.375,0.663 -0.375,1.17 0,0.552 0.126,0.967 0.376,1.243 0.251,0.277 0.626,0.415 1.125,0.415 0.239,0 0.448,-0.021 0.631,-0.062 0.181,-0.042 0.33,-0.078 0.445,-0.107l0.357 0.82c-0.11,0.029 -0.304,0.07 -0.58,0.123 -0.277,0.053 -0.592,0.08 -0.943,0.08zm0.538 -0.203l0 -2.353 0.985 0 0 2.353 -0.985 0zm-0.884 -1.531l0 -0.822 1.848 0 0 0.822 -1.848 0z"/>
     <polygon class="fil4" points="5.668,14.3 5.081,14.3 5.081,11.845 4.107,12.785 3.747,12.378 5.374,10.792 7.001,12.378 6.642,12.785 5.668,11.85 "/>
    </g>
   </g>
  </g>
 </g>
</svg>
