<?xml version="1.0" encoding="UTF-8"?>
<!DOCTYPE svg PUBLIC "-//W3C//DTD SVG 1.1//EN" "http://www.w3.org/Graphics/SVG/1.1/DTD/svg11.dtd">
<!-- Creator: CorelDRAW Standard 2024 -->
<svg xmlns="http://www.w3.org/2000/svg" xml:space="preserve" width="1em" height="1em" version="1.1" style="shape-rendering:geometricPrecision; text-rendering:geometricPrecision; image-rendering:optimizeQuality; fill-rule:evenodd; clip-rule:evenodd"
viewBox="0 0 63.054 35.441"
 xmlns:xlink="http://www.w3.org/1999/xlink"
 xmlns:xodm="http://www.corel.com/coreldraw/odm/2003">
 <defs>
  <style type="text/css">
   <![CDATA[
    .fil1 {fill:#52AE32}
    .fil3 {fill:white}
    .fil0 {fill:black;fill-rule:nonzero}
    .fil4 {fill:black;fill-rule:nonzero}
    .fil2 {fill:white;fill-rule:nonzero}
   ]]>
  </style>
 </defs>
 <g id="Layer_x0020_1">
  <metadata id="CorelCorpID_0Corel-Layer"/>
  <g id="_1378944319088">
   <path class="fil0" d="M2.571 0l44.274 0c0.162,0 0.306,0.075 0.4,0.191l15.675 17.184c0.18,0.198 0.177,0.497 0,0.691l-15.695 17.206c-0.101,0.111 -0.24,0.168 -0.38,0.168l-44.274 0.001c-0.708,0 -1.351,-0.289 -1.816,-0.755 -0.466,-0.465 -0.755,-1.108 -0.755,-1.816l0 -30.299c0,-0.708 0.289,-1.351 0.755,-1.816 0.465,-0.466 1.108,-0.755 1.816,-0.755zm44.049 1.028l-44.049 0c-0.424,0 -0.81,0.174 -1.089,0.454 -0.28,0.279 -0.454,0.665 -0.454,1.089l0 30.299c0,0.424 0.174,0.809 0.454,1.089 0.279,0.28 0.665,0.454 1.089,0.454l44.049 0 15.226 -16.693 -15.226 -16.692z"/>
   <polygon class="fil1" points="14.667,0.514 14.667,34.927 46.845,34.927 62.541,17.72 46.845,0.514 "/>
   <path class="fil2" d="M28.781 25.577l4.474 0c1.353,0 2.405,-0.287 3.146,-0.855 0.74,-0.575 1.117,-1.379 1.117,-2.407 0,-1.034 -0.39,-1.826 -1.175,-2.383 -0.778,-0.557 -1.895,-0.833 -3.35,-0.833l-4.212 0 0 6.478zm5.833 -8.259l0.861 0c2.311,0 4.085,0.5 5.342,1.505 1.251,1.005 1.876,2.43 1.876,4.279 0,2.091 -0.727,3.705 -2.176,4.848 -1.455,1.142 -3.516,1.717 -6.177,1.717l-5.559 0 -0.262 0 -4.671 0 0 -23.893 4.301 0 0.632 0 3.274 0c2.795,0 4.952,0.511 6.477,1.539 1.525,1.028 2.291,2.487 2.291,4.383 0,1.636 -0.593,2.894 -1.774,3.767 -1.076,0.797 -2.552,1.23 -4.435,1.304l0 0.551zm-5.833 -7.455l0 5.129 3.351 0c1.155,0 2.035,-0.224 2.622,-0.677 0.594,-0.454 0.894,-1.126 0.894,-2.011 0,-0.809 -0.319,-1.418 -0.945,-1.826 -0.631,-0.414 -1.576,-0.615 -2.833,-0.615l-3.089 0z"/>
   <g>
    <path class="fil3" d="M2.571 0.514c-1.131,0 -2.057,0.926 -2.057,2.057l0 30.299c0,1.131 0.926,2.057 2.057,2.057l12.096 0 0 -34.413 -12.096 0z"/>
    <g>
     <path class="fil4" d="M4.551 11.652l2.178 -6.79 1.721 0 2.18 6.79 -1.514 0 -1.478 -5.132 -0.096 0 -1.477 5.132 -1.514 0zm1.099 -1.286l0 -1.167 3.827 0 0 1.167 -3.827 0z"/>
     <path class="fil4" d="M8.17 31.088c-1.155,0 -2.022,-0.292 -2.601,-0.876 -0.58,-0.583 -0.869,-1.458 -0.869,-2.625 0,-1.107 0.3,-1.964 0.898,-2.571 0.599,-0.607 1.442,-0.911 2.528,-0.911 0.55,0 1.023,0.079 1.422,0.232 0.399,0.155 0.71,0.374 0.933,0.658l-0.882 0.914c-0.163,-0.188 -0.368,-0.336 -0.615,-0.442 -0.245,-0.108 -0.509,-0.16 -0.794,-0.16 -0.637,0 -1.132,0.192 -1.484,0.581 -0.353,0.387 -0.529,0.937 -0.529,1.652 0,0.78 0.177,1.366 0.531,1.756 0.354,0.392 0.883,0.586 1.589,0.586 0.337,0 0.633,-0.029 0.89,-0.088 0.256,-0.059 0.467,-0.109 0.63,-0.15l0.504 1.157c-0.156,0.041 -0.43,0.1 -0.82,0.175 -0.392,0.075 -0.836,0.112 -1.331,0.112zm0.76 -0.287l0 -3.323 1.391 0 0 3.323 -1.391 0zm-1.25 -2.161l0 -1.162 2.61 0 0 1.162 -2.61 0z"/>
     <polygon class="fil4" points="8.005,20.197 7.176,20.197 7.176,16.73 5.8,18.057 5.293,17.483 7.59,15.243 9.888,17.483 9.381,18.057 8.005,16.737 "/>
    </g>
   </g>
  </g>
 </g>
</svg>
