<?xml version="1.0" encoding="UTF-8"?>
<!DOCTYPE svg PUBLIC "-//W3C//DTD SVG 1.1//EN" "http://www.w3.org/Graphics/SVG/1.1/DTD/svg11.dtd">
<!-- Creator: CorelDRAW Standard 2024 -->
<svg xmlns="http://www.w3.org/2000/svg" xml:space="preserve" width="362px" height="204px" version="1.1" style="shape-rendering:geometricPrecision; text-rendering:geometricPrecision; image-rendering:optimizeQuality; fill-rule:evenodd; clip-rule:evenodd"
viewBox="0 0 108.384 60.92"
 xmlns:xlink="http://www.w3.org/1999/xlink"
 xmlns:xodm="http://www.corel.com/coreldraw/odm/2003">
 <defs>
  <style type="text/css">
   <![CDATA[
    .fil1 {fill:#C8D400}
    .fil3 {fill:white}
    .fil0 {fill:black;fill-rule:nonzero}
    .fil4 {fill:black;fill-rule:nonzero}
    .fil2 {fill:white;fill-rule:nonzero}
   ]]>
  </style>
 </defs>
 <g id="Layer_x0020_1">
  <metadata id="CorelCorpID_0Corel-Layer"/>
  <g id="_1378945285808">
   <path class="fil0" d="M4.419 0l76.104 0c0.278,0 0.525,0.128 0.687,0.328l26.944 29.538c0.31,0.34 0.304,0.855 0,1.187l-26.979 29.577c-0.174,0.191 -0.412,0.288 -0.652,0.288l-76.104 0.002c-1.216,0 -2.321,-0.497 -3.122,-1.298 -0.8,-0.8 -1.297,-1.905 -1.297,-3.121l0 -52.082c0,-1.216 0.497,-2.321 1.297,-3.122 0.801,-0.8 1.906,-1.297 3.122,-1.297zm75.716 1.767l-75.716 0c-0.729,0 -1.391,0.299 -1.872,0.78 -0.481,0.481 -0.78,1.143 -0.78,1.872l0 52.082c0,0.728 0.299,1.391 0.78,1.872 0.481,0.48 1.143,0.779 1.872,0.779l75.716 0 26.173 -28.692 -26.173 -28.693z"/>
   <polygon class="fil1" points="25.211,0.884 25.211,60.036 80.523,60.036 107.502,30.46 80.523,0.884 "/>
   <path class="fil2" d="M60.431 51.577c-14.546,0 -21.818,-7.059 -21.818,-21.176 0,-6.694 1.831,-11.877 5.495,-15.55 3.664,-3.672 8.852,-5.508 15.555,-5.508 3.016,0 5.704,0.444 8.04,1.322 2.326,0.869 4.103,2.123 5.299,3.742l-4.761 5.578c-0.966,-1.076 -2.183,-1.905 -3.675,-2.498 -1.492,-0.592 -3.104,-0.878 -4.837,-0.878 -3.686,0 -6.637,1.165 -8.853,3.514 -2.215,2.34 -3.323,5.667 -3.323,9.991 0,9.448 4.651,14.167 13.974,14.167 3.105,0 6.176,-0.572 9.193,-1.727l1.481 7.049c-3.73,1.313 -7.657,1.974 -11.77,1.974z"/>
   <g>
    <path class="fil3" d="M4.419 0.884c-1.945,0 -3.535,1.59 -3.535,3.535l0 52.082c0,1.944 1.591,3.535 3.535,3.535l20.792 0 0 -59.152 -20.792 0z"/>
    <g>
     <path class="fil4" d="M7.822 20.029l3.745 -11.672 2.958 0 3.747 11.672 -2.603 0 -2.541 -8.822 -0.165 0 -2.537 8.822 -2.604 0zm1.89 -2.211l0 -2.006 6.578 0 0 2.006 -6.578 0z"/>
     <path class="fil4" d="M14.043 53.438c-1.985,0 -3.476,-0.502 -4.47,-1.506 -0.998,-1.002 -1.494,-2.506 -1.494,-4.512 0,-1.903 0.515,-3.376 1.544,-4.42 1.028,-1.043 2.478,-1.565 4.346,-1.565 0.944,0 1.758,0.135 2.444,0.398 0.686,0.267 1.219,0.643 1.602,1.131l-1.515 1.571c-0.28,-0.322 -0.633,-0.578 -1.057,-0.76 -0.421,-0.185 -0.876,-0.275 -1.365,-0.275 -1.094,0 -1.946,0.331 -2.55,0.999 -0.608,0.665 -0.911,1.61 -0.911,2.839 0,1.342 0.306,2.349 0.914,3.019 0.608,0.674 1.518,1.008 2.731,1.008 0.579,0 1.088,-0.051 1.53,-0.152 0.44,-0.101 0.802,-0.188 1.082,-0.258l0.867 1.989c-0.268,0.071 -0.739,0.172 -1.409,0.301 -0.674,0.129 -1.438,0.193 -2.289,0.193zm1.307 -0.494l0 -5.712 2.391 0 0 5.712 -2.391 0zm-2.148 -3.715l0 -1.997 4.486 0 0 1.997 -4.486 0z"/>
     <polygon class="fil4" points="13.76,34.718 12.335,34.718 12.335,28.757 9.97,31.038 9.098,30.052 13.047,26.202 16.997,30.052 16.125,31.038 13.76,28.769 "/>
    </g>
   </g>
  </g>
 </g>
</svg>
