<?xml version="1.0" encoding="UTF-8"?>
<!DOCTYPE svg PUBLIC "-//W3C//DTD SVG 1.1//EN" "http://www.w3.org/Graphics/SVG/1.1/DTD/svg11.dtd">
<!-- Creator: CorelDRAW Standard 2024 -->
<svg xmlns="http://www.w3.org/2000/svg" xml:space="preserve" width="1em" height="1em" version="1.1" style="shape-rendering:geometricPrecision; text-rendering:geometricPrecision; image-rendering:optimizeQuality; fill-rule:evenodd; clip-rule:evenodd"
viewBox="0 0 366.531 206.016"
 xmlns:xlink="http://www.w3.org/1999/xlink"
 xmlns:xodm="http://www.corel.com/coreldraw/odm/2003">
 <defs>
  <style type="text/css">
   <![CDATA[
    .fil1 {fill:#FFED00}
    .fil3 {fill:white}
    .fil0 {fill:black;fill-rule:nonzero}
    .fil4 {fill:black;fill-rule:nonzero}
    .fil2 {fill:white;fill-rule:nonzero}
   ]]>
  </style>
 </defs>
 <g id="Layer_x0020_1">
  <metadata id="CorelCorpID_0Corel-Layer"/>
  <g id="_1342793494496">
   <path class="fil0" d="M14.943 0l257.367 0c0.939,0 1.776,0.433 2.324,1.111l91.12 99.889c1.045,1.148 1.025,2.891 0,4.016l-91.238 100.019c-0.588,0.647 -1.396,0.975 -2.206,0.975l-257.367 0.006c-4.112,0 -7.849,-1.68 -10.556,-4.387 -2.706,-2.706 -4.387,-6.443 -4.387,-10.556l0 -176.13c0,-4.112 1.681,-7.849 4.387,-10.556 2.707,-2.706 6.444,-4.387 10.556,-4.387zm256.056 5.977l-256.056 0c-2.463,0 -4.704,1.01 -6.33,2.636 -1.626,1.626 -2.636,3.867 -2.636,6.33l0 176.13c0,2.463 1.01,4.704 2.636,6.33 1.626,1.626 3.867,2.636 6.33,2.636l256.056 0 88.511 -97.031 -88.511 -97.031z"/>
   <polygon class="fil1" points="85.258,2.989 85.258,203.028 272.31,203.028 363.547,103.008 272.31,2.989 "/>
   <path class="fil2" d="M165.152 147.712l10.535 0c14.134,0 24.707,-3.638 31.792,-10.917 7.048,-7.278 10.609,-17.895 10.609,-31.817 0,-15.391 -3.561,-27.043 -10.609,-34.922 -7.085,-7.913 -17.658,-11.853 -31.792,-11.853l-10.535 0 0 89.509zm-3.709 -114.148l3.709 0 10.535 0c48.337,0 72.486,23.805 72.486,71.414 0,44.972 -24.149,67.474 -72.486,67.474l-10.535 0 -1.521 0 -27.192 0 0 -138.888 25.004 0z"/>
   <g>
    <path class="fil3" d="M14.943 2.989c-6.575,0 -11.954,5.379 -11.954,11.954l0 176.13c0,6.575 5.38,11.955 11.954,11.955l70.315 0 0 -200.039 -70.315 0z"/>
    <g>
     <path class="fil4" d="M26.454 67.733l12.661 -39.473 10.006 0 12.672 39.473 -8.803 0 -8.593 -29.832 -0.559 0 -8.581 29.832 -8.803 0zm6.389 -7.477l0 -6.785 22.245 0 0 6.785 -22.245 0z"/>
     <path class="fil4" d="M47.492 180.716c-6.716,0 -11.756,-1.699 -15.119,-5.095 -3.374,-3.388 -5.05,-8.474 -5.05,-15.258 0,-6.434 1.739,-11.415 5.219,-14.945 3.479,-3.53 8.381,-5.295 14.697,-5.295 3.195,0 5.946,0.456 8.265,1.347 2.32,0.902 4.123,2.174 5.42,3.825l-5.125 5.313c-0.948,-1.091 -2.14,-1.954 -3.574,-2.571 -1.423,-0.626 -2.962,-0.93 -4.617,-0.93 -3.701,0 -6.579,1.119 -8.624,3.378 -2.056,2.249 -3.079,5.447 -3.079,9.603 0,4.535 1.033,7.942 3.089,10.209 2.056,2.278 5.134,3.407 9.236,3.407 1.96,0 3.679,-0.171 5.176,-0.513 1.487,-0.341 2.71,-0.636 3.659,-0.873l2.93 6.728c-0.906,0.237 -2.498,0.579 -4.765,1.015 -2.277,0.436 -4.86,0.655 -7.738,0.655zm4.417 -1.67l0 -19.319 8.086 0 0 19.319 -8.086 0zm-7.264 -12.563l0 -6.756 15.171 0 0 6.756 -15.171 0z"/>
     <polygon class="fil4" points="46.534,117.407 41.713,117.407 41.713,97.249 33.716,104.964 30.767,101.63 44.121,88.609 57.48,101.63 54.532,104.964 46.534,97.289 "/>
    </g>
   </g>
  </g>
 </g>
</svg>
