<?xml version="1.0" encoding="UTF-8"?>
<!DOCTYPE svg PUBLIC "-//W3C//DTD SVG 1.1//EN" "http://www.w3.org/Graphics/SVG/1.1/DTD/svg11.dtd">
<!-- Creator: CorelDRAW Standard 2024 -->
<svg xmlns="http://www.w3.org/2000/svg" xml:space="preserve" width="362px" height="204px" version="1.1" style="shape-rendering:geometricPrecision; text-rendering:geometricPrecision; image-rendering:optimizeQuality; fill-rule:evenodd; clip-rule:evenodd"
viewBox="0 0 265.829 149.415"
 xmlns:xlink="http://www.w3.org/1999/xlink"
 xmlns:xodm="http://www.corel.com/coreldraw/odm/2003">
 <defs>
  <style type="text/css">
   <![CDATA[
    .fil1 {fill:#FBBA00}
    .fil3 {fill:white}
    .fil0 {fill:black;fill-rule:nonzero}
    .fil4 {fill:black;fill-rule:nonzero}
    .fil2 {fill:white;fill-rule:nonzero}
   ]]>
  </style>
 </defs>
 <g id="Layer_x0020_1">
  <metadata id="CorelCorpID_0Corel-Layer"/>
  <g id="_1343646783232">
   <path class="fil0" d="M10.837 0l186.658 0c0.681,0 1.288,0.314 1.686,0.805l66.084 72.446c0.759,0.833 0.744,2.096 0,2.912l-66.17 72.54c-0.427,0.469 -1.013,0.707 -1.6,0.707l-186.658 0.005c-2.982,0 -5.692,-1.219 -7.655,-3.182 -1.963,-1.963 -3.182,-4.673 -3.182,-7.656l0 -127.74c0,-2.982 1.219,-5.692 3.182,-7.655 1.963,-1.963 4.673,-3.182 7.655,-3.182zm185.707 4.335l-185.707 0c-1.786,0 -3.411,0.733 -4.59,1.912 -1.179,1.179 -1.912,2.804 -1.912,4.59l0 127.74c0,1.786 0.733,3.412 1.912,4.591 1.179,1.179 2.804,1.912 4.59,1.912l185.707 0 64.193 -70.373 -64.193 -70.372z"/>
   <polygon class="fil1" points="61.834,2.167 61.834,147.247 197.495,147.247 263.665,74.707 197.495,2.167 "/>
   <polygon class="fil2" points="100.541,125.072 100.541,107.832 100.541,83.279 100.541,65.99 100.541,41.583 100.541,24.343 121.338,24.343 177.298,24.343 177.298,41.583 121.338,41.583 121.338,65.99 163.12,65.99 163.12,83.279 121.338,83.279 121.338,107.832 177.298,107.832 177.298,125.072 121.338,125.072 "/>
   <g>
    <path class="fil3" d="M10.837 2.167c-4.768,0 -8.67,3.902 -8.67,8.67l0 127.74c0,4.769 3.902,8.67 8.67,8.67l50.997 0 0 -145.08 -50.997 0z"/>
    <g>
     <path class="fil4" d="M19.186 49.124l9.183 -28.628 7.256 0 9.191 28.628 -6.385 0 -6.232 -21.636 -0.405 0 -6.224 21.636 -6.384 0zm4.634 -5.423l0 -4.921 16.133 0 0 4.921 -16.133 0z"/>
     <path class="fil4" d="M34.444 131.066c-4.871,0 -8.526,-1.232 -10.965,-3.696 -2.447,-2.457 -3.663,-6.145 -3.663,-11.066 0,-4.666 1.262,-8.278 3.785,-10.839 2.523,-2.56 6.079,-3.84 10.659,-3.84 2.317,0 4.313,0.331 5.995,0.977 1.682,0.654 2.99,1.577 3.93,2.774l-3.716 3.854c-0.688,-0.792 -1.552,-1.418 -2.592,-1.865 -1.033,-0.454 -2.148,-0.675 -3.349,-0.675 -2.684,0 -4.772,0.812 -6.255,2.45 -1.491,1.631 -2.233,3.951 -2.233,6.965 0,3.289 0.75,5.76 2.241,7.404 1.491,1.652 3.723,2.471 6.698,2.471 1.422,0 2.668,-0.124 3.754,-0.372 1.079,-0.248 1.965,-0.461 2.654,-0.633l2.125 4.879c-0.657,0.173 -1.812,0.42 -3.456,0.736 -1.651,0.317 -3.525,0.476 -5.612,0.476zm3.203 -1.212l0 -14.011 5.865 0 0 14.011 -5.865 0zm-5.268 -9.111l0 -4.9 11.003 0 0 4.9 -11.003 0z"/>
     <polygon class="fil4" points="33.749,85.15 30.253,85.15 30.253,70.53 24.452,76.126 22.314,73.708 31.999,64.264 41.688,73.708 39.549,76.126 33.749,70.559 "/>
    </g>
   </g>
  </g>
 </g>
</svg>
