<?xml version="1.0" encoding="UTF-8"?>
<!DOCTYPE svg PUBLIC "-//W3C//DTD SVG 1.1//EN" "http://www.w3.org/Graphics/SVG/1.1/DTD/svg11.dtd">
<!-- Creator: CorelDRAW Standard 2024 -->
<svg xmlns="http://www.w3.org/2000/svg" xml:space="preserve" width="362px" height="204px" version="1.1" style="shape-rendering:geometricPrecision; text-rendering:geometricPrecision; image-rendering:optimizeQuality; fill-rule:evenodd; clip-rule:evenodd"
viewBox="0 0 96.67 54.335"
 xmlns:xlink="http://www.w3.org/1999/xlink"
 xmlns:xodm="http://www.corel.com/coreldraw/odm/2003">
 <defs>
  <style type="text/css">
   <![CDATA[
    .fil1 {fill:#EC6608}
    .fil3 {fill:white}
    .fil0 {fill:black;fill-rule:nonzero}
    .fil4 {fill:black;fill-rule:nonzero}
    .fil2 {fill:white;fill-rule:nonzero}
   ]]>
  </style>
 </defs>
 <g id="Layer_x0020_1">
  <metadata id="CorelCorpID_0Corel-Layer"/>
  <g id="_1343651993200">
   <path class="fil0" d="M3.941 0l67.879 0c0.247,0 0.468,0.114 0.613,0.293l24.032 26.345c0.276,0.303 0.27,0.762 0,1.059l-24.063 26.38c-0.156,0.17 -0.368,0.257 -0.582,0.257l-67.879 0.001c-1.084,0 -2.07,-0.443 -2.784,-1.157 -0.714,-0.714 -1.157,-1.699 -1.157,-2.784l0 -46.453c0,-1.084 0.443,-2.07 1.157,-2.784 0.714,-0.714 1.7,-1.157 2.784,-1.157zm67.533 1.576l-67.533 0c-0.649,0 -1.241,0.267 -1.669,0.696 -0.429,0.428 -0.696,1.02 -0.696,1.669l0 46.453c0,0.65 0.267,1.241 0.696,1.67 0.428,0.428 1.02,0.695 1.669,0.695l67.533 0 23.344 -25.591 -23.344 -25.592z"/>
   <polygon class="fil1" points="22.486,0.788 22.486,53.547 71.82,53.547 95.883,27.168 71.82,0.788 "/>
   <polygon class="fil2" points="37.139,45.483 37.139,31.834 37.139,25.512 37.139,15.122 37.139,8.852 44.702,8.852 65.053,8.852 65.053,15.122 44.702,15.122 44.702,25.512 59.407,25.512 59.407,31.834 44.702,31.834 44.702,45.483 "/>
   <g>
    <path class="fil3" d="M3.941 0.788c-1.734,0 -3.153,1.419 -3.153,3.153l0 46.453c0,1.734 1.419,3.153 3.153,3.153l18.545 0 0 -52.759 -18.545 0z"/>
    <g>
     <path class="fil4" d="M6.977 17.864l3.339 -10.411 2.639 0 3.343 10.411 -2.322 0 -2.267 -7.868 -0.147 0 -2.263 7.868 -2.322 0zm1.685 -1.972l0 -1.789 5.867 0 0 1.789 -5.867 0z"/>
     <path class="fil4" d="M12.526 47.663c-1.772,0 -3.101,-0.448 -3.988,-1.344 -0.89,-0.894 -1.332,-2.235 -1.332,-4.025 0,-1.696 0.459,-3.01 1.377,-3.941 0.917,-0.931 2.21,-1.397 3.876,-1.397 0.843,0 1.568,0.121 2.18,0.356 0.612,0.238 1.087,0.573 1.429,1.008l-1.351 1.402c-0.25,-0.288 -0.565,-0.516 -0.943,-0.678 -0.375,-0.166 -0.781,-0.246 -1.218,-0.246 -0.976,0 -1.735,0.296 -2.274,0.891 -0.543,0.593 -0.812,1.437 -0.812,2.533 0,1.196 0.272,2.095 0.814,2.693 0.543,0.6 1.355,0.898 2.436,0.898 0.517,0 0.971,-0.045 1.365,-0.135 0.393,-0.09 0.715,-0.168 0.965,-0.23l0.773 1.774c-0.239,0.063 -0.659,0.153 -1.256,0.268 -0.601,0.115 -1.282,0.173 -2.041,0.173zm1.165 -0.441l0 -5.095 2.132 0 0 5.095 -2.132 0zm-1.916 -3.313l0 -1.782 4.001 0 0 1.782 -4.001 0z"/>
     <polygon class="fil4" points="12.273,30.965 11.001,30.965 11.001,25.649 8.892,27.684 8.115,26.804 11.636,23.37 15.16,26.804 14.382,27.684 12.273,25.659 "/>
    </g>
   </g>
  </g>
 </g>
</svg>
