<?xml version="1.0" encoding="UTF-8"?>
<!DOCTYPE svg PUBLIC "-//W3C//DTD SVG 1.1//EN" "http://www.w3.org/Graphics/SVG/1.1/DTD/svg11.dtd">
<!-- Creator: CorelDRAW Standard 2024 -->
<svg xmlns="http://www.w3.org/2000/svg" xml:space="preserve" width="1em" height="1em" version="1.1" style="shape-rendering:geometricPrecision; text-rendering:geometricPrecision; image-rendering:optimizeQuality; fill-rule:evenodd; clip-rule:evenodd"
viewBox="0 0 59.373 33.372"
 xmlns:xlink="http://www.w3.org/1999/xlink"
 xmlns:xodm="http://www.corel.com/coreldraw/odm/2003">
 <defs>
  <style type="text/css">
   <![CDATA[
    .fil2 {fill:none}
    .fil1 {fill:#E30613}
    .fil4 {fill:white}
    .fil0 {fill:black;fill-rule:nonzero}
    .fil5 {fill:black;fill-rule:nonzero}
    .fil3 {fill:white;fill-rule:nonzero}
   ]]>
  </style>
 </defs>
 <g id="Layer_x0020_1">
  <metadata id="CorelCorpID_0Corel-Layer"/>
  <g id="_1378941367152">
   <path class="fil0" d="M2.421 0l41.69 0c0.152,0 0.287,0.07 0.376,0.18l14.76 16.181c0.17,0.186 0.166,0.468 0,0.65l-14.779 16.202c-0.095,0.105 -0.226,0.158 -0.357,0.158l-41.69 0.001c-0.667,0 -1.272,-0.272 -1.71,-0.711 -0.439,-0.438 -0.711,-1.044 -0.711,-1.71l0 -28.53c0,-0.667 0.272,-1.272 0.711,-1.71 0.438,-0.439 1.043,-0.711 1.71,-0.711zm41.477 0.968l-41.477 0c-0.399,0 -0.762,0.164 -1.026,0.427 -0.263,0.264 -0.427,0.627 -0.427,1.026l0 28.53c0,0.399 0.164,0.762 0.427,1.026 0.264,0.263 0.627,0.427 1.026,0.427l41.477 0 14.338 -15.718 -14.338 -15.718z"/>
   <polygon class="fil1" points="13.811,0.484 13.811,32.888 44.111,32.888 58.89,16.686 44.111,0.484 "/>
   <polygon class="fil2" points="13.811,0.484 47.194,0.484 47.194,32.888 13.811,32.888 "/>
   <path class="fil3" d="M32.299 28.254c-3.828,0 -6.7,-0.968 -8.617,-2.904 -1.923,-1.931 -2.879,-4.83 -2.879,-8.697 0,-3.666 0.992,-6.506 2.975,-8.517 1.983,-2.012 4.777,-3.018 8.377,-3.018 1.82,0 3.389,0.26 4.711,0.768 1.322,0.514 2.349,1.238 3.088,2.179l-2.92 3.029c-0.541,-0.622 -1.22,-1.114 -2.037,-1.466 -0.811,-0.357 -1.689,-0.53 -2.632,-0.53 -2.109,0 -3.75,0.638 -4.915,1.926 -1.172,1.281 -1.755,3.104 -1.755,5.473 0,2.585 0.589,4.526 1.76,5.819 1.172,1.298 2.927,1.941 5.264,1.941 0.763,0 1.46,-0.045 2.098,-0.135l0 -3.98 -4.141 0 0 -3.851 4.141 0 4.506 0 0.103 0 0 11.011c-0.517,0.135 -1.425,0.33 -2.717,0.579 -1.298,0.249 -2.77,0.373 -4.41,0.373z"/>
   <g>
    <path class="fil4" d="M2.421 0.484c-1.065,0 -1.937,0.872 -1.937,1.937l0 28.53c0,1.065 0.872,1.937 1.937,1.937l11.39 0 0 -32.404 -11.39 0z"/>
    <g>
     <path class="fil5" d="M4.285 10.972l2.051 -6.394 1.621 0 2.053 6.394 -1.426 0 -1.392 -4.833 -0.091 0 -1.39 4.833 -1.426 0zm1.035 -1.211l0 -1.099 3.603 0 0 1.099 -3.603 0z"/>
     <path class="fil5" d="M7.693 29.274c-1.088,0 -1.904,-0.276 -2.449,-0.826 -0.547,-0.548 -0.818,-1.372 -0.818,-2.471 0,-1.042 0.282,-1.849 0.845,-2.421 0.564,-0.572 1.358,-0.858 2.381,-0.858 0.518,0 0.963,0.074 1.339,0.218 0.376,0.146 0.668,0.352 0.878,0.62l-0.83 0.861c-0.154,-0.177 -0.347,-0.317 -0.579,-0.417 -0.231,-0.101 -0.48,-0.151 -0.748,-0.151 -0.6,0 -1.066,0.182 -1.397,0.548 -0.333,0.364 -0.499,0.882 -0.499,1.555 0,0.735 0.168,1.287 0.501,1.654 0.333,0.369 0.831,0.552 1.496,0.552 0.317,0 0.596,-0.028 0.838,-0.083 0.241,-0.056 0.439,-0.103 0.593,-0.142l0.474 1.09c-0.146,0.039 -0.404,0.094 -0.771,0.164 -0.369,0.071 -0.788,0.107 -1.254,0.107zm0.716 -0.271l0 -3.129 1.309 0 0 3.129 -1.309 0zm-1.177 -2.035l0 -1.094 2.457 0 0 1.094 -2.457 0z"/>
     <polygon class="fil5" points="7.538,19.018 6.757,19.018 6.757,15.753 5.461,17.003 4.984,16.463 7.147,14.353 9.311,16.463 8.833,17.003 7.538,15.76 "/>
    </g>
   </g>
  </g>
 </g>
</svg>
